<svg xmlns="http://www.w3.org/2000/svg" xmlns:xlink="http://www.w3.org/1999/xlink" id="Layer_1" x="0" y="0" version="1.1" viewBox="0 0 2800 1146" xml:space="preserve" style="enable-background:new 0 0 2800 1146"><style type="text/css">.st0{opacity:.5;fill:#e0dfff}.st1{fill:url(#SVGID_1_)}.st2{fill:url(#SVGID_2_)}.st3{fill:url(#SVGID_3_)}.st4{fill:url(#SVGID_4_)}.st5{fill:url(#SVGID_5_)}.st6{fill:url(#SVGID_6_)}.st7{fill:url(#SVGID_7_)}.st8{fill:url(#SVGID_8_)}.st9{fill:url(#SVGID_9_)}.st10{fill:url(#SVGID_10_)}.st11{fill:url(#SVGID_11_)}.st12{fill:url(#SVGID_12_)}.st13{fill:url(#SVGID_13_)}.st14{fill:#eef}.st15{fill:#fff}.st16{fill:url(#SVGID_14_)}.st17{fill:url(#SVGID_15_)}.st18{fill:url(#SVGID_16_)}.st19{fill:url(#SVGID_17_)}.st20{fill:url(#SVGID_18_)}.st21{fill:#fbfbfd}.st22{fill:url(#SVGID_19_)}.st23{fill:url(#SVGID_20_)}.st24{fill:url(#SVGID_21_)}.st25{fill:url(#SVGID_22_)}.st26{fill:url(#SVGID_23_)}.st27{fill:url(#SVGID_24_)}.st28{fill:url(#SVGID_25_)}.st29{fill:url(#SVGID_26_)}.st30{fill:url(#SVGID_27_)}.st31{fill:url(#SVGID_28_)}.st32{fill:url(#SVGID_29_)}.st33{fill:url(#SVGID_30_)}.st34{fill:#ffbc27}.st35{fill:#aa5013}.st36{fill:#00abff}.st37{fill:#582606}.st38{fill:#e34246}</style><g><rect width="2374.1" height="13.7" x="425.9" y="380.9" class="st0"/></g><g><rect width="2270.4" height="13.7" x="529.6" y="585.4" class="st0"/></g><g><rect width="1961.8" height="13.7" x="838.2" y="788.8" class="st0"/></g><g><g><linearGradient id="SVGID_1_" x1="72.224" x2="799.357" y1="560.437" y2="560.437" gradientUnits="userSpaceOnUse"><stop offset="0" style="stop-color:#9134e8"/><stop offset="1" style="stop-color:#3463e8"/></linearGradient><path d="M102.5,272.6l29.2,115.1L160,272.6h23.2l26.9,116l28.7-116H270l-47.2,164.8h-24.5l-26.9-109.1l-27.4,109.1 h-23.8L72.2,272.6H102.5z" class="st1"/><linearGradient id="SVGID_2_" x1="72.224" x2="799.357" y1="560.437" y2="560.437" gradientUnits="userSpaceOnUse"><stop offset="0" style="stop-color:#9134e8"/><stop offset="1" style="stop-color:#3463e8"/></linearGradient><path d="M273.9,345.7c4.9-10.1,12.2-18.6,22-25.4c9.8-6.8,21.5-10.2,35-10.2c10.8,0,21.2,2.7,31,8.1 c9.8,5.4,17.7,13,23.8,22.8c6.1,9.8,9.1,21.1,9.1,33.8c0,4-0.4,8.6-1.1,13.8h-95.8c1.8,7.3,5.8,13,12,17.3 c6.2,4.2,13.4,6.5,21.4,6.8c10.8-0.4,19.7-4.1,26.5-10.9h32.7c-4.3,11.4-11.5,20.8-21.7,28.1c-10.2,7.3-22.2,11.1-36.2,11.6 c-18.1,0.1-33.7-6-46.7-18.6c-13-12.5-19.6-26.8-19.9-42.9c0.3-1.5,0.4-3.3,0.4-5.6C266.5,365.4,269,355.8,273.9,345.7z M309.2,346.1c-5.7,4.8-9.6,10.2-11.7,16.5h67.9c-1.9-5.9-5.9-11.4-12-16.4c-6.1-5-13.4-7.5-22-7.5 C322.3,338.9,314.9,341.4,309.2,346.1z" class="st2"/><linearGradient id="SVGID_3_" x1="72.224" x2="799.357" y1="560.437" y2="560.437" gradientUnits="userSpaceOnUse"><stop offset="0" style="stop-color:#9134e8"/><stop offset="1" style="stop-color:#3463e8"/></linearGradient><path d="M94,517.2H121v11.4c6.4-10.8,16.1-16,29.2-15.6v28.7c-9.4,1-16.1,3.7-20.3,7.9c-4.2,4.2-6.2,12.1-6.2,23.7 v67.5H94V517.2z" class="st3"/><linearGradient id="SVGID_4_" x1="72.224" x2="799.357" y1="560.437" y2="560.437" gradientUnits="userSpaceOnUse"><stop offset="0" style="stop-color:#9134e8"/><stop offset="1" style="stop-color:#3463e8"/></linearGradient><path d="M162.3,542.4c5.9-9.6,13.6-16.8,22.9-21.5c9.4-4.7,19-7,29-7c9.4,0,17.9,1.9,25.5,5.6 c7.6,3.7,13.2,8.8,16.6,15.1v-17.4h26.9v123.6h-26.9v-16.9c-4.2,5.9-10.4,10.9-18.6,14.9c-8.2,4-16.2,6-23.9,6 c-11.9,0-22.6-3-32.1-8.9c-9.5-5.9-16.8-14-21.8-24.2c-5-10.2-7.4-21.5-7.1-34C153.1,563.9,156.3,552,162.3,542.4z M245.4,605.2 c6.6-7,9.9-15.7,9.9-26.1c0-11.3-3.6-20.2-10.7-26.7c-7.1-6.5-15.7-9.8-25.8-9.8c-10.1,0-18.7,3.4-25.8,10.1 c-7.1,6.8-10.7,15.7-10.7,26.8c0,11.1,3.9,20,11.6,26.6c7.7,6.6,16.3,9.9,25.8,9.9C230.3,615.8,238.8,612.2,245.4,605.2z" class="st4"/><linearGradient id="SVGID_5_" x1="72.224" x2="799.357" y1="560.437" y2="560.437" gradientUnits="userSpaceOnUse"><stop offset="0" style="stop-color:#9134e8"/><stop offset="1" style="stop-color:#3463e8"/></linearGradient><path d="M310.4,476h30.1l-0.4,41.2h18.3v26.1H340l0.4,97.5h-30.1v-97.5h-14.3v-26.1h14.3V476z" class="st5"/><linearGradient id="SVGID_6_" x1="72.224" x2="799.357" y1="560.437" y2="560.437" gradientUnits="userSpaceOnUse"><stop offset="0" style="stop-color:#9134e8"/><stop offset="1" style="stop-color:#3463e8"/></linearGradient><path d="M369.9,549.1c4.9-10.1,12.2-18.6,22-25.4c9.8-6.8,21.5-10.2,35-10.2c10.8,0,21.2,2.7,31,8.1 c9.8,5.4,17.7,13,23.8,22.8c6.1,9.8,9.1,21.1,9.1,33.8c0,4-0.4,8.6-1.1,13.8h-95.8c1.8,7.3,5.8,13,12,17.3 c6.2,4.2,13.4,6.5,21.4,6.8c10.8-0.4,19.7-4.1,26.5-10.9h32.7c-4.3,11.4-11.5,20.8-21.7,28.1c-10.2,7.3-22.2,11.1-36.2,11.6 c-18.1,0.1-33.7-6-46.7-18.6c-13-12.5-19.6-26.8-19.9-42.9c0.3-1.5,0.4-3.3,0.4-5.6C362.5,568.8,365,559.2,369.9,549.1z M405.2,549.5c-5.7,4.8-9.6,10.2-11.7,16.5h67.9c-1.9-5.9-5.9-11.4-12-16.4c-6.1-5-13.4-7.5-22-7.5 C418.3,542.3,410.9,544.8,405.2,549.5z" class="st6"/><linearGradient id="SVGID_7_" x1="72.224" x2="799.357" y1="560.437" y2="560.437" gradientUnits="userSpaceOnUse"><stop offset="0" style="stop-color:#9134e8"/><stop offset="1" style="stop-color:#3463e8"/></linearGradient><path d="M98.3,679.4h30.1l-0.4,41.2h18.3v26.1h-18.3l0.4,97.5H98.3v-97.5H84v-26.1h14.3V679.4z" class="st7"/><linearGradient id="SVGID_8_" x1="72.224" x2="799.357" y1="560.437" y2="560.437" gradientUnits="userSpaceOnUse"><stop offset="0" style="stop-color:#9134e8"/><stop offset="1" style="stop-color:#3463e8"/></linearGradient><path d="M182.1,720.6l23.2,75.3l20.5-75.3h23.4l20.5,75.3l22.7-75.3h31.2l-44.8,123.6h-17.8l-24.1-79.9l-22.9,79.9 h-18.3l-44.8-123.6H182.1z" class="st8"/><linearGradient id="SVGID_9_" x1="72.224" x2="799.357" y1="560.437" y2="560.437" gradientUnits="userSpaceOnUse"><stop offset="0" style="stop-color:#9134e8"/><stop offset="1" style="stop-color:#3463e8"/></linearGradient><path d="M330.5,752.5c4.9-10.1,12.2-18.6,22-25.4c9.8-6.8,21.5-10.2,35-10.2c10.8,0,21.2,2.7,31,8.1 c9.8,5.4,17.7,13,23.8,22.8c6.1,9.8,9.1,21.1,9.1,33.8c0,4-0.4,8.6-1.1,13.8h-95.8c1.8,7.3,5.8,13,12,17.3 c6.2,4.2,13.4,6.5,21.4,6.8c10.8-0.4,19.7-4.1,26.5-10.9h32.7c-4.3,11.4-11.5,20.8-21.7,28.1c-10.2,7.3-22.2,11.1-36.2,11.6 c-18.1,0.1-33.7-6-46.7-18.6c-13-12.5-19.6-26.8-19.9-42.9c0.3-1.5,0.4-3.3,0.4-5.6C323.1,772.2,325.6,762.6,330.5,752.5z M365.8,752.9c-5.7,4.8-9.6,10.2-11.7,16.5H422c-1.9-5.9-5.9-11.4-12-16.4c-6.1-5-13.4-7.5-22-7.5 C378.9,745.7,371.5,748.2,365.8,752.9z" class="st9"/><linearGradient id="SVGID_10_" x1="72.224" x2="799.357" y1="560.437" y2="560.437" gradientUnits="userSpaceOnUse"><stop offset="0" style="stop-color:#9134e8"/><stop offset="1" style="stop-color:#3463e8"/></linearGradient><path d="M468.8,752.5c4.9-10.1,12.2-18.6,22-25.4c9.8-6.8,21.5-10.2,35-10.2c10.8,0,21.2,2.7,31,8.1 c9.8,5.4,17.7,13,23.8,22.8c6.1,9.8,9.1,21.1,9.1,33.8c0,4-0.4,8.6-1.1,13.8h-95.8c1.8,7.3,5.8,13,12,17.3 c6.2,4.2,13.4,6.5,21.4,6.8c10.8-0.4,19.7-4.1,26.5-10.9h32.7c-4.3,11.4-11.5,20.8-21.7,28.1c-10.2,7.3-22.2,11.1-36.2,11.6 c-18.1,0.1-33.7-6-46.7-18.6c-13-12.5-19.6-26.8-19.9-42.9c0.3-1.5,0.4-3.3,0.4-5.6C461.4,772.2,463.9,762.6,468.8,752.5z M504.1,752.9c-5.7,4.8-9.6,10.2-11.7,16.5h67.9c-1.9-5.9-5.9-11.4-12-16.4c-6.1-5-13.4-7.5-22-7.5 C517.2,745.7,509.8,748.2,504.1,752.9z" class="st10"/><linearGradient id="SVGID_11_" x1="72.224" x2="799.357" y1="560.437" y2="560.437" gradientUnits="userSpaceOnUse"><stop offset="0" style="stop-color:#9134e8"/><stop offset="1" style="stop-color:#3463e8"/></linearGradient><path d="M609.7,679.4h30.1l-0.4,41.2h18.3v26.1h-18.3l0.4,97.5h-30.1v-97.5h-14.3v-26.1h14.3V679.4z" class="st11"/><linearGradient id="SVGID_12_" x1="72.224" x2="799.357" y1="560.437" y2="560.437" gradientUnits="userSpaceOnUse"><stop offset="0" style="stop-color:#9134e8"/><stop offset="1" style="stop-color:#3463e8"/></linearGradient><path d="M684,723.5c7.4-4.5,15.1-6.7,23.2-6.7c6.2-0.1,12.5,1.3,18.8,4.3c6.3,3,11.5,7.6,15.6,13.6 c4.1,6,6.2,12.7,6.3,19.9h-28.3c-2.2-5.8-6.4-8.7-12.5-8.7c-3,0-5.6,1-8,3c-2.4,2-3.6,4.4-3.8,7.2c0.4,4.2,3.5,7.3,9.1,9.6 c4.5,1.3,10.2,3.1,17.3,5.2c7,2.2,13.4,5.5,19.2,10c5.7,4.5,9.1,11.1,10.1,19.7c1.3,11.4-2,22.1-9.9,32.1 c-7.9,9.9-19.6,14.9-34.9,14.9c-4.3,0-8.7-0.4-13.1-1.3c-8.3-1.6-15.4-6.1-21.2-13.4c-5.8-7.3-9.1-16.5-10-27.6h29.8 c2.1,8.8,7.2,13.4,15.4,14c4.3-0.3,7.9-1.7,10.7-4.1c2.8-2.4,4-5.5,3.6-9c0-2.5-1.1-4.7-3.2-6.6c-2.2-1.9-4.8-3.4-7.9-4.7 c-3.1-1.3-7-2.7-11.7-4.2c-4.7-1.6-8.8-3.2-12.4-5c-13.1-6.4-19.9-16.6-20.5-30.7c0.4-4.2,1.2-8.1,2.2-11.8 C671.2,734.6,676.5,728,684,723.5z" class="st12"/><linearGradient id="SVGID_13_" x1="72.224" x2="799.357" y1="560.437" y2="560.437" gradientUnits="userSpaceOnUse"><stop offset="0" style="stop-color:#9134e8"/><stop offset="1" style="stop-color:#3463e8"/></linearGradient><path d="M784.5,814.6L784.5,814.6c8.2,0,14.8,6.6,14.8,14.8v0c0,8.2-6.6,14.8-14.8,14.8h0c-8.2,0-14.8-6.6-14.8-14.8 v0C769.7,821.2,776.4,814.6,784.5,814.6z" class="st13"/></g></g><g><path d="M1445,265.4c-14.6,7.3-30.9,11.1-47.4,11.1c-28.3,0-55-11-75-31.1c-41.4-41.4-41.4-108.7,0-150 c20-20,46.7-31.1,75-31.1s55,11,75,31.1c16.5,16.5,26.9,37.4,30.1,60.4c2.9,21.1-0.7,43-10.1,62l14.9,62.5L1445,265.4z" class="st14"/><path d="M1397.7,73.2c24.9,0,49.8,9.5,68.8,28.5c31.1,31.1,36.7,78.1,16.8,115l12.4,51.7l-51.7-12.4 c-14.4,7.8-30.3,11.7-46.2,11.7c-24.9,0-49.8-9.5-68.8-28.5c-38-38-38-99.6,0-137.5C1347.9,82.7,1372.8,73.2,1397.7,73.2 M1397.7,55.5c-14.9,0-29.5,2.8-43.2,8.4c-14.3,5.8-27.1,14.3-38,25.2c-11,11-19.5,23.8-25.2,38c-5.6,13.8-8.4,28.3-8.4,43.2 s2.8,29.5,8.4,43.2c5.8,14.3,14.3,27.1,25.2,38c11,11,23.8,19.5,38,25.2c13.8,5.6,28.3,8.4,43.2,8.4c16.7,0,33.3-3.7,48.4-10.7 l45.5,10.9l28,6.7l-6.7-28l-10.9-45.5c4.2-9,7.1-18.4,8.9-28.2c2.1-11.9,2.3-24,0.7-36c-1.7-12.1-5.3-23.8-10.6-34.8 c-5.6-11.3-12.9-21.6-21.9-30.6c-11-11-23.8-19.5-38-25.2C1427.1,58.4,1412.6,55.5,1397.7,55.5L1397.7,55.5z" class="st15"/></g><g><path d="M2299.5,449.3c-14.6,7.3-30.9,11.1-47.4,11.1c-28.3,0-55-11-75-31.1c-41.4-41.4-41.4-108.7,0-150 c20-20,46.7-31.1,75-31.1s55,11,75,31.1c16.5,16.5,26.9,37.4,30.1,60.4c2.9,21.1-0.7,43-10.1,62l14.9,62.5L2299.5,449.3z" class="st14"/><path d="M2252.2,257.1c24.9,0,49.8,9.5,68.8,28.5c31.1,31.1,36.7,78.1,16.8,115l12.4,51.7l-51.7-12.4 c-14.4,7.8-30.3,11.7-46.2,11.7c-24.9,0-49.8-9.5-68.8-28.5c-38-38-38-99.6,0-137.5C2202.4,266.6,2227.3,257.1,2252.2,257.1 M2252.2,239.4c-14.9,0-29.5,2.8-43.2,8.4c-14.3,5.8-27.1,14.3-38,25.2c-11,11-19.5,23.8-25.2,38c-5.6,13.8-8.4,28.3-8.4,43.2 c0,14.9,2.8,29.5,8.4,43.2c5.8,14.3,14.3,27.1,25.2,38c11,11,23.8,19.5,38,25.2c13.8,5.6,28.3,8.4,43.2,8.4 c16.7,0,33.3-3.7,48.4-10.7l45.5,10.9l28,6.7l-6.7-28l-10.9-45.5c4.2-9,7.1-18.4,8.9-28.2c2.1-11.9,2.3-24,0.7-36 c-1.7-12.1-5.3-23.8-10.6-34.8c-5.6-11.3-12.9-21.6-21.9-30.6c-11-11-23.8-19.5-38-25.2C2281.6,242.3,2267.1,239.4,2252.2,239.4 L2252.2,239.4z" class="st15"/></g><g><path d="M1862.3,608.6c-9.5-19-13.1-40.9-10.1-62c3.2-23,13.6-43.9,30.1-60.4c20-20,46.7-31.1,75-31.1 c28.3,0,55,11,75,31.1c41.4,41.4,41.4,108.7,0,150c-20,20-46.7,31.1-75,31.1c-16.4,0-32.7-3.8-47.4-11.1l-62.5,14.9L1862.3,608.6z" class="st14"/><path d="M1957.3,464c24.9,0,49.8,9.5,68.8,28.5c38,38,38,99.6,0,137.5c-19,19-43.9,28.5-68.8,28.5 c-15.9,0-31.9-3.9-46.2-11.7l-51.7,12.4l12.4-51.7c-19.9-36.9-14.3-83.9,16.8-115C1907.5,473.5,1932.4,464,1957.3,464 M1957.3,446.3c-14.9,0-29.5,2.8-43.2,8.4c-14.3,5.8-27.1,14.3-38,25.2c-9,9-16.4,19.3-21.9,30.6c-5.4,11-9,22.7-10.6,34.8 c-1.7,12-1.4,24.1,0.7,36c1.7,9.8,4.7,19.2,8.9,28.2l-10.9,45.5l-6.7,28l28-6.7l45.5-10.9c15.1,7,31.7,10.7,48.4,10.7 c14.9,0,29.5-2.8,43.2-8.4c14.3-5.8,27.1-14.3,38-25.2c11-11,19.5-23.8,25.2-38c5.6-13.8,8.4-28.3,8.4-43.2 c0-14.9-2.8-29.5-8.4-43.2c-5.8-14.3-14.3-27.1-25.2-38c-11-11-23.8-19.5-38-25.2C1986.8,449.2,1972.2,446.3,1957.3,446.3 L1957.3,446.3z" class="st15"/></g><g><linearGradient id="SVGID_14_" x1="1500.348" x2="1515.083" y1="279.149" y2="279.149" gradientUnits="userSpaceOnUse"><stop offset="0" style="stop-color:#827fda"/><stop offset="1" style="stop-color:#625eab"/></linearGradient><polygon points="1515.1 271.8 1500.3 286.5 1515.1 286.5" class="st16"/><g><linearGradient id="SVGID_15_" x1="1597.753" x2="1626.059" y1="364.717" y2="263.413" gradientUnits="userSpaceOnUse"><stop offset="0" style="stop-color:#ffc160"/><stop offset="1" style="stop-color:#ff4980"/></linearGradient><path d="M1598.5,294.9c-14.8-14.8-23.1-34.8-23.1-55.8v-30.2l-32.5,33.8l1.7-1.7v0c16.1,16.1,16.1,42.1,0,58.2 l-28,28c6.7,30.8,34.1,53.9,66.9,53.9h101.3L1598.5,294.9z" class="st17"/><linearGradient id="SVGID_16_" x1="1515.083" x2="1556.715" y1="284.139" y2="284.139" gradientUnits="userSpaceOnUse"><stop offset="0" style="stop-color:#4a4292"/><stop offset="1" style="stop-color:#342b5a"/></linearGradient><path d="M1544.7,241L1544.7,241l-1.7,1.7l-27.9,29.1v40.9c0,5,0.5,9.9,1.6,14.6l28-28 C1560.7,283.2,1560.7,257.1,1544.7,241z" class="st18"/></g><g><linearGradient id="SVGID_17_" x1="1587.092" x2="1684.752" y1="338.059" y2="338.059" gradientUnits="userSpaceOnUse"><stop offset="0" style="stop-color:#827fda"/><stop offset="1" style="stop-color:#625eab"/></linearGradient><path d="M1598.6,295c-21.1,21.1-12,57.1,16.6,65.5l69.5,20.6L1598.6,295L1598.6,295z" class="st19"/><linearGradient id="SVGID_18_" x1="1663.232" x2="1717.527" y1="408.927" y2="408.927" gradientUnits="userSpaceOnUse"><stop offset="0" style="stop-color:#e0dfff"/><stop offset="1" style="stop-color:#a6a2f6"/></linearGradient><polygon points="1684.8 381.9 1663.2 381.8 1717.5 436.1 1717.5 414.6" class="st20"/></g><circle cx="1535.9" cy="271.8" r="6.8" class="st21"/></g><g><g><linearGradient id="SVGID_19_" x1="1768.787" x2="1838.832" y1="653.495" y2="653.495" gradientUnits="userSpaceOnUse"><stop offset="0" style="stop-color:#4a4292"/><stop offset="1" style="stop-color:#342b5a"/></linearGradient><path d="M1814.9,678.9c2.2-14.1,11.4-25.8,24-31.5c-9.7-11.8-24.4-19.4-41-19.4c-10.7,0-20.7,3.2-29.1,8.7 C1789.5,643.6,1806.3,659.1,1814.9,678.9z" class="st22"/><linearGradient id="SVGID_20_" x1="1707.833" x2="1783.777" y1="694.023" y2="694.023" gradientUnits="userSpaceOnUse"><stop offset="0" style="stop-color:#e0dfff"/><stop offset="1" style="stop-color:#a6a2f6"/></linearGradient><path d="M1764.8,663.8c-2.3-4.1-3.8-7.2-3.8-9c0,0,0,0,0,0c0,0,0,0,0-0.1c0-9.8,2.5-12.7,7.8-18c0,0,0,0,0,0 c-0.4,0.4-4.9,4.4-11.4,10.1c-3.5,3.1-7.6,6.8-12,10.6c-14.7,12.9-31.9,27.7-37.6,31.6c0,0,0,0,0,0c3.2-2.1,6.3-4,9.2-5.6 c6.2-4.5,13.8-7.3,22-7.6c0.4,0,0.9,0,1.3,0c1.6,0,3.2,0.1,4.7,0.2c23.9,2.2,33.3,20.5,34.8,35.4c0,0,0,0.1,0,0.1 c0.1,0.5,0.1,1.1,0.1,1.6c0,0.2,0,0.3,0,0.5c0,0.6,0,1.2,0,1.9c0,4.4-1,9.3-3,14.2c-3.4,8.5-9.9,16.7-19.2,21.5 c4.1-2,7.7-4.7,10.9-7.9c1.3-1.4,2.6-2.8,3.7-4.4c2.5-3.1,4.5-6,6-8.6c4.1-7.1,5.2-13,5.2-19.4 C1783.8,694.9,1771.3,675.6,1764.8,663.8z" class="st23"/><linearGradient id="SVGID_21_" x1="1619.267" x2="1702.766" y1="756.868" y2="756.868" gradientUnits="userSpaceOnUse"><stop offset="0" style="stop-color:#827fda"/><stop offset="1" style="stop-color:#625eab"/></linearGradient><path d="M1676.5,742.4c-4.4-0.7-8.9-1.1-13.5-1.1c-21.8,0-43.7,7.4-43.7,7.4s17.2-3.5,25.8-3.5 c18.3,0,36.5,15.5,57.7,27.2C1691.5,765,1682.4,754.6,1676.5,742.4z" class="st24"/><linearGradient id="SVGID_22_" x1="1676.454" x2="1777.6" y1="763.785" y2="763.785" gradientUnits="userSpaceOnUse"><stop offset="0" style="stop-color:#e0dfff"/><stop offset="1" style="stop-color:#a6a2f6"/></linearGradient><path d="M1763.5,779.5c-38.8,0-46.2-27-78.8-35.6c-2.7-0.6-5.5-1.1-8.2-1.5c6,12.2,15.1,22.6,26.3,30.1 c12.8,7.1,26.6,12.7,42.2,12.7c0.6,0,1.3,0,1.9,0c0.2,0,0.5,0,0.7,0c0.4,0,0.8,0,1.2,0c0.3,0,0.5,0,0.8,0c0.3,0,0.7,0,1-0.1 c0.3,0,0.5,0,0.8-0.1c0.4,0,0.7-0.1,1.1-0.1c0.2,0,0.5,0,0.7-0.1c0.4,0,0.9-0.1,1.3-0.2c0.1,0,0.2,0,0.4,0 c8.1-1,15.8-3.3,22.8-6.7l-0.2,0C1773,778.9,1768.3,779.5,1763.5,779.5z" class="st25"/><linearGradient id="SVGID_23_" x1="1752.869" x2="1752.869" y1="768.012" y2="645.525" gradientUnits="userSpaceOnUse"><stop offset="0" style="stop-color:#00abff"/><stop offset="1" style="stop-color:#3463ea"/></linearGradient><path d="M1821.1,708.2c-0.1-7.7-1.3-15.2-3.6-22.2c-0.8-2.4-1.6-4.8-2.6-7c-8.6-19.9-25.4-35.3-46.1-42.2 c0,0,0,0,0,0c-5.3,5.3-7.8,8.2-7.8,18c0,0,0,0,0,0.1c0,1.8,1.6,4.9,3.8,9c6.5,11.7,19,31.1,19,47.1c0,6.4-1.1,12.2-5.2,19.4 c-1.5,2.7-3.5,5.5-6,8.6c-1.1,1.6-2.4,3-3.7,4.4c-3.1,3.2-6.8,5.9-10.9,7.9c-4,2-8.4,3.4-13.4,3.9c-0.1,0-0.3,0-0.4,0 c-0.5,0-1,0.1-1.6,0.1c-0.7,0-1.4,0.1-2.2,0.1c-10,0-19.7-2-29.4-4.6c-8.8-2.3-17.5-5-26.4-6.9c32.6,8.6,40,35.6,78.8,35.6 c4.8,0,9.4-0.6,13.9-1.6c0.1,0,0.2,0,0.3-0.1c19.5-9.3,34.5-26.7,40.5-47.9c1.9-6.6,2.9-13.6,2.9-20.9 C1821.1,708.8,1821.1,708.5,1821.1,708.2z" class="st26"/><linearGradient id="SVGID_24_" x1="1619.267" x2="1780.141" y1="715.6" y2="715.6" gradientUnits="userSpaceOnUse"><stop offset="0" style="stop-color:#4a4292"/><stop offset="1" style="stop-color:#342b5a"/></linearGradient><path d="M1780.1,713.7c0-0.2,0-0.3,0-0.5c0-0.5-0.1-1.1-0.1-1.6c0,0,0-0.1,0-0.1c-1.5-14.9-10.9-33.2-34.8-35.4 c0,0,0,0,0,0.1c-1.6-0.2-3.1-0.3-4.7-0.3c-0.4,0-0.9,0-1.3,0c-8.2,0.3-15.8,3-22,7.6c-3,1.7-6,3.5-9.2,5.6c0,0,0,0,0,0 c-10.9,7.1-23.5,16.7-38.6,27.4c-14.1,10-30.5,21.1-49.9,32.2c0,0,21.8-7.4,43.7-7.4c4.6,0,9,0.4,13.5,1.1 c2.8,0.4,5.5,0.9,8.2,1.5c8.9,1.9,17.6,4.6,26.4,6.9c9.7,2.5,19.4,4.6,29.4,4.6c0.7,0,1.5,0,2.2-0.1c0.5,0,1-0.1,1.6-0.1 c0.1,0,0.3,0,0.4,0c4.8-0.5,9.3-1.8,13.4-3.9c9.3-4.7,15.8-13,19.2-21.5c2-4.9,3-9.8,3-14.2C1780.1,715,1780.1,714.4,1780.1,713.7 z" class="st27"/></g><circle cx="1789" cy="660.6" r="6.8" class="st15"/></g><g><linearGradient id="SVGID_25_" x1="2388.054" x2="2477.644" y1="465.679" y2="465.679" gradientUnits="userSpaceOnUse"><stop offset="0" style="stop-color:#4a4292"/><stop offset="1" style="stop-color:#342b5a"/></linearGradient><path d="M2442.4,462.8l-29.2-28.2c-15.6,16.1-25.2,38.1-25.2,62.3h40.6h49L2442.4,462.8z" class="st28"/><linearGradient id="SVGID_26_" x1="2413.232" x2="2541.57" y1="452.014" y2="452.014" gradientUnits="userSpaceOnUse"><stop offset="0" style="stop-color:#827fda"/><stop offset="1" style="stop-color:#625eab"/></linearGradient><path d="M2477.6,407.2c-25.3,0-48.1,10.5-64.4,27.3l29.2,28.2l35.2,34.1l28.7-28.2c-1.5-1.5-2.4-3.6-2.4-6 c0-2.2,0.8-4.2,2.2-5.7c1.6-1.7,3.8-2.8,6.3-2.8c2.4,0,4.5,1,6.1,2.6l23.1-22.6C2525.3,417.5,2502.7,407.2,2477.6,407.2z" class="st29"/><linearGradient id="SVGID_27_" x1="2432.85" x2="2432.85" y1="647.793" y2="452.803" gradientUnits="userSpaceOnUse"><stop offset="0" style="stop-color:#9134e8"/><stop offset="1" style="stop-color:#ff4980"/></linearGradient><path d="M2477.6,545.8v-49c-17.3,0-33.4,4.9-47.1,13.4c-12.6,7.8-23.1,18.6-30.5,31.4c-7.6,13.2-12,28.5-12,44.8 c0,49.5,40.1,89.6,89.6,89.6v-49c-22.4,0-40.6-18.2-40.6-40.6c0-3.2,0.4-6.2,1.1-9.2C2442.3,559.2,2458.4,545.8,2477.6,545.8z" class="st30"/><linearGradient id="SVGID_28_" x1="2477.644" x2="2526.654" y1="507.221" y2="507.221" gradientUnits="userSpaceOnUse"><stop offset="0" style="stop-color:#e0dfff"/><stop offset="1" style="stop-color:#a6a2f6"/></linearGradient><path d="M2518,469.1c-1.5,1.3-3.5,2.1-5.6,2.1c-2.4,0-4.5-1-6.1-2.6l-28.7,28.2v49c22.4,0,41.3-15.1,47.1-35.6 c1.2-4.3,1.9-8.8,1.9-13.4C2526.7,486.5,2523.5,476.9,2518,469.1z" class="st31"/><linearGradient id="SVGID_29_" x1="2437.064" x2="2477.644" y1="586.4" y2="586.4" gradientUnits="userSpaceOnUse"><stop offset="0" style="stop-color:#4a4292"/><stop offset="1" style="stop-color:#342b5a"/></linearGradient><path d="M2438.1,577.2c-0.7,2.9-1.1,6-1.1,9.2c0,22.4,18.2,40.6,40.6,40.6v-40.6v-40.6 C2458.4,545.8,2442.3,559.2,2438.1,577.2z" class="st32"/><linearGradient id="SVGID_30_" x1="2522.439" x2="2522.439" y1="647.793" y2="452.803" gradientUnits="userSpaceOnUse"><stop offset="0" style="stop-color:#9134e8"/><stop offset="1" style="stop-color:#ff4980"/></linearGradient><path d="M2541.6,434l-23.1,22.6c1.5,1.5,2.4,3.6,2.4,6c0,2.6-1.1,4.8-2.9,6.4c5.4,7.9,8.6,17.4,8.6,27.8 c0,4.6-0.7,9.1-1.9,13.4c-5.8,20.6-24.7,35.6-47.1,35.6v40.6c14.2,0,27.6-3.3,39.5-9.2c15.9-7.9,29.2-20.3,38.1-35.6 c7.6-13.2,12-28.5,12-44.8C2567.2,472.4,2557.4,450.2,2541.6,434z" class="st33"/><path d="M2518.5,456.7c-1.5-1.6-3.7-2.6-6.1-2.6c-2.5,0-4.7,1.1-6.3,2.8c-1.4,1.5-2.2,3.5-2.2,5.7 c0,2.3,0.9,4.4,2.4,6c1.5,1.6,3.7,2.6,6.1,2.6c2.1,0,4.1-0.8,5.6-2.1c1.8-1.6,2.9-3.8,2.9-6.4 C2520.9,460.3,2520,458.2,2518.5,456.7z" class="st15"/></g><g><circle cx="2253.7" cy="357.5" r="43.8" class="st34"/><path d="M2239.1,386.7c0-8.1,6.5-14.6,14.6-14.6s14.6,6.5,14.6,14.6H2239.1z" class="st35"/><path d="M2287.5,345.4c5.7,5.7,15,5.7,20.8,0c5.7-5.7,5.7-15,0-20.8l-10.4-10.4l-10.4,10.4 C2281.8,330.4,2281.8,339.7,2287.5,345.4z" class="st36"/><g><circle cx="2231.5" cy="357.4" r="7.4" class="st35"/><circle cx="2275.9" cy="357.4" r="7.4" class="st35"/></g></g><g><path d="M1957,515c0,0,20.7,15,25.6,29.4c8.2,1.6,14.4,8.8,14.4,17.5c0,2.9-0.7,5.7-1.9,8.1c3.9,3.8,6.3,9.1,6.3,14.9 v0c0,11.5-9.3,20.9-20.9,20.9h-47c-11.5,0-20.9-9.3-20.9-20.9v0c0-5.8,2.4-11.1,6.3-14.9c-1.2-2.4-1.9-5.2-1.9-8.1 c0-8.7,6.2-15.9,14.4-17.5C1936.3,530,1957,515,1957,515" class="st35"/><path d="M1977.4,576.7c0,8.1-9.2,14.6-20.5,14.6s-20.5-6.5-20.5-14.6H1977.4z" class="st15"/><g><circle cx="1934.7" cy="562" r="7.4" class="st37"/><circle cx="1979.2" cy="562" r="7.4" class="st37"/></g></g><g><circle cx="1398" cy="170.8" r="43.8" class="st34"/><path d="M1412.6,185.4c0,8.1-6.5,14.6-14.6,14.6c-8.1,0-14.6-6.5-14.6-14.6H1412.6z" class="st35"/><g><path d="M1393.2,161.6c0-4.2-3.4-7.7-7.7-7.7c-1.7,0-3.3,0.6-4.6,1.5c-1.1,0.9-2,2-2.6,3.4c-0.5-1.3-1.4-2.5-2.6-3.4 c-1.3-0.9-2.9-1.5-4.6-1.5c-4.2,0-7.7,3.4-7.7,7.7c0,1.7,0.6,3.3,1.5,4.6l0,0l0,0c0.4,0.6,0.9,1.1,1.5,1.5l11.7,11.7l11.7-11.7 c0.6-0.4,1.1-0.9,1.5-1.5l0,0l0,0C1392.7,164.8,1393.2,163.3,1393.2,161.6z" class="st38"/><path d="M1432.4,161.6c0-4.2-3.4-7.7-7.7-7.7c-1.7,0-3.3,0.6-4.6,1.5c-1.1,0.9-2,2-2.6,3.4c-0.5-1.3-1.4-2.5-2.6-3.4 c-1.3-0.9-2.9-1.5-4.6-1.5c-4.2,0-7.7,3.4-7.7,7.7c0,1.7,0.6,3.3,1.5,4.6l0,0l0,0c0.4,0.6,0.9,1.1,1.5,1.5l11.7,11.7l11.7-11.7 c0.6-0.4,1.1-0.9,1.5-1.5l0,0l0,0C1431.8,164.8,1432.4,163.3,1432.4,161.6z" class="st38"/></g></g></svg>